<?xml version="1.0" encoding="UTF-8" standalone="no"?>
<!DOCTYPE svg PUBLIC "-//W3C//DTD SVG 1.1//EN" "http://www.w3.org/Graphics/SVG/1.1/DTD/svg11.dtd">
<svg xmlns="http://www.w3.org/2000/svg" version="1.1" viewBox="0 0 673 676" width="673.0pt" height="676.0pt">
<path d="M 0.00 0.00 L 673.00 0.00 L 673.00 676.00 L 0.00 676.00 L 0.00 0.00 Z" fill="#eaeaea" />
<path d="M 366.00 3.53 C 388.66 5.26 411.54 10.46 433.40 16.60 C 481.26 31.01 525.83 56.59 562.74 90.26 C 587.56 113.13 609.12 139.74 626.09 168.93 C 655.51 219.29 671.64 277.64 671.69 336.00 C 672.17 384.81 661.54 433.81 641.16 478.15 C 616.03 532.81 576.14 580.49 526.51 614.52 C 499.11 633.34 468.91 648.23 437.22 658.26 C 416.84 664.60 396.03 668.88 374.86 671.55 C 356.94 673.93 339.00 673.92 320.96 673.53 C 288.04 672.01 255.19 665.45 224.05 654.69 C 194.70 644.16 166.79 629.71 141.37 611.64 C 91.42 576.17 51.60 526.83 27.46 470.53 C -2.67 400.75 -8.04 320.77 12.63 247.62 C 29.49 186.78 64.03 131.16 110.86 88.85 C 150.42 53.15 198.75 26.65 250.41 13.40 C 270.10 8.26 290.69 4.27 311.03 3.22 C 329.30 1.81 347.75 2.08 366.00 3.53 Z" fill="#808080" />
<path d="M 337.00 67.20 C 404.40 66.83 471.33 93.49 520.56 139.42 C 529.71 147.45 537.38 156.41 545.34 165.60 C 553.40 175.75 560.98 186.21 567.70 197.31 C 590.47 234.75 603.95 277.67 606.49 321.43 C 606.66 329.68 607.67 337.76 606.83 346.01 C 605.89 381.22 597.86 416.28 583.39 448.38 C 580.08 455.73 576.59 463.34 572.25 470.13 C 572.96 460.81 574.30 451.40 574.47 442.00 C 574.93 423.08 573.10 404.03 569.23 385.50 C 560.66 345.79 541.90 308.46 515.01 277.99 C 494.70 254.79 469.57 235.76 442.03 221.96 C 412.81 207.84 380.53 198.91 348.05 197.48 C 336.41 197.34 324.59 196.96 313.01 198.33 C 285.78 200.90 258.97 208.64 234.20 220.17 C 193.71 239.34 158.83 270.04 134.98 307.99 C 123.62 325.54 115.08 344.68 108.72 364.56 C 101.30 388.02 98.04 412.44 97.74 437.00 C 98.15 448.24 99.04 459.39 100.36 470.57 C 96.28 464.11 93.05 457.08 89.83 450.16 C 76.98 422.05 68.98 391.76 66.39 360.96 C 65.12 349.06 65.45 336.95 65.63 325.00 C 66.66 305.92 69.54 286.83 74.47 268.35 C 89.86 210.13 125.14 157.47 173.39 121.39 C 220.18 86.25 278.41 66.59 337.00 67.20 Z" fill="#eaeaea" />
<path d="M 320.33 262.67 C 335.12 262.01 350.59 261.64 365.16 264.52 C 389.40 268.72 412.81 278.05 433.24 291.77 C 445.13 300.20 456.65 309.77 466.13 320.88 C 482.12 339.00 494.23 360.56 501.37 383.65 C 506.70 400.62 509.19 418.24 509.40 436.00 C 508.94 464.41 502.21 492.55 488.54 517.53 C 485.08 523.60 482.02 529.92 477.04 534.84 C 476.37 527.86 476.72 520.89 475.50 513.94 C 471.34 483.17 456.75 454.15 434.54 432.46 C 414.53 412.64 388.58 399.30 360.85 394.39 C 349.95 391.96 339.05 392.19 327.96 392.38 C 320.65 392.49 313.23 393.90 306.08 395.39 C 274.95 402.11 246.41 419.63 226.52 444.52 C 209.21 465.80 198.46 492.21 195.77 519.49 C 195.35 524.60 195.51 529.74 194.97 534.85 C 190.07 529.99 187.21 524.13 183.82 518.18 C 169.80 492.76 162.80 463.97 162.60 435.00 C 162.99 407.32 169.40 379.86 182.30 355.30 C 197.47 326.06 221.19 301.12 249.89 284.88 C 271.45 272.65 295.70 265.17 320.33 262.67 Z" fill="#eaeaea" />
<path d="M 327.32 458.12 C 338.57 456.51 350.47 458.32 361.18 461.94 C 372.88 465.83 383.48 473.14 391.92 482.07 C 402.40 493.67 409.45 508.63 411.34 524.17 C 412.01 533.29 412.08 543.05 409.63 551.91 C 405.76 566.71 397.45 580.81 385.66 590.68 C 374.41 600.50 359.84 607.16 344.95 608.58 C 335.88 608.76 325.89 609.42 317.19 606.85 C 304.62 603.58 293.13 597.25 283.77 588.23 C 268.80 574.21 259.87 553.53 260.33 532.99 C 260.07 518.84 264.50 504.91 271.96 492.97 C 278.59 482.09 288.16 473.48 299.14 467.15 C 307.83 462.40 317.51 459.39 327.32 458.12 Z" fill="#eaeaea" />
</svg>